<svg version="1.2" xmlns="http://www.w3.org/2000/svg" viewBox="0 0 238 179" width="238" height="179">
	<title>image-svg</title>
	<style>
		.s0 { fill: #000000 } 
	</style>
	<g id="Layer">
		<g id="Layer">
			<g id="Layer">
				<path id="Layer" fill-rule="evenodd" class="s0" d="m119.7-1.4l112.6 0.1 1.3 1c0.8 0.6 1.9 1.7 2.4 2.4l1 1.3v171.3l-1 1.3c-0.6 0.8-1.7 1.9-2.4 2.4l-1.3 1h-226.4l-1.3-1c-0.8-0.6-1.9-1.7-2.4-2.4-1.1-1.3-1.1-1.4-1.2-85.6 0-46.4 0-85 0.2-85.8 0.3-2 2.4-4.5 4.4-5.4 1.2-0.6 21.2-0.7 114.1-0.6zm-0.4 15.5c-91 0-100.9 0.1-101.6 0.8-0.7 0.7-0.8 6.1-0.8 51.9 0 28.2 0.2 51.3 0.4 51.4 0.4 0.3 45-57 48.5-62.4 0.5-0.7 1.3-1.3 1.7-1.3 0.5 0 15.5 20.7 39.6 54.4 21.3 29.9 39.1 54.5 39.5 54.6 0.4 0.2 3.8 0.3 7.6 0.3 5.4 0 6.8-0.2 6.8-0.7 0-0.3-7.1-10.6-15.8-22.7-8.8-12.3-15.8-22.5-15.8-23.1 0-1.6 15.6-23.2 16.7-23.2 0.7 0 8 9.9 25.4 34.2 13.4 18.8 24.8 34.6 25.2 34.9 1.2 0.8 23.4 0.8 24.2 0 0.5-0.4 0.6-17.5 0.6-74 0-66.1-0.1-73.5-0.8-74.2-0.7-0.7-10.6-0.8-101.4-0.9z"/>
				<path id="Layer" class="s0" d="m175.1 30.9c-11.9 3.8-19 16.4-15.9 28.3 2.3 8.9 9.5 15.8 18.3 17.6 10.8 2.2 22.7-4.3 26.8-14.7 1.6-4.2 1.9-10.8 0.5-15.2-3.2-10.4-12.1-16.9-22.9-16.8-2.4-0.1-5.1 0.3-6.8 0.8z"/>
			</g>
		</g>
	</g>
</svg>